<?xml version="1.0" standalone="no"?>
<!DOCTYPE svg PUBLIC "-//W3C//DTD SVG 20010904//EN"
 "http://www.w3.org/TR/2001/REC-SVG-20010904/DTD/svg10.dtd">
<svg version="1.0" xmlns="http://www.w3.org/2000/svg"
 width="225.000000pt" height="225.000000pt" viewBox="0 0 225.000000 225.000000"
 preserveAspectRatio="xMidYMid meet">
<metadata>
Created by potrace 1.11, written by Peter Selinger 2001-2013
</metadata>
<g transform="translate(0.000000,225.000000) scale(0.100000,-0.100000)"
fill="#000000" stroke="none">
<path d="M1904 2158 c-132 -212 -219 -310 -374 -424 -98 -73 -208 -140 -216
-132 -2 3 19 56 47 119 28 63 57 128 65 146 8 17 17 46 21 64 8 43 -7 33 -56
-39 -43 -64 -162 -181 -261 -259 -100 -78 -305 -210 -400 -258 -201 -101 -318
-231 -391 -435 -20 -56 -23 -84 -23 -205 0 -125 2 -148 26 -217 75 -224 276
-411 498 -463 76 -17 222 -20 306 -4 282 52 519 314 553 614 10 82 40 222 91
425 99 394 110 450 93 450 -6 0 -47 -41 -93 -90 -83 -91 -146 -147 -155 -138
-3 3 12 43 33 89 22 46 51 116 66 154 15 39 33 85 41 103 8 18 15 37 15 43 0
6 7 25 15 42 16 35 47 123 71 202 8 28 19 59 24 70 17 37 47 176 39 181 -5 2
-20 -15 -35 -38z"/>
</g>
</svg>
